<?xml version="1.0" encoding="UTF-8"?>
<svg id="Layer_1" data-name="Layer 1" xmlns="http://www.w3.org/2000/svg" viewBox="0 0 2000 500">
  <defs>
    <style>
      .cls-1 {
        isolation: isolate;
      }

      .cls-1, .cls-2 {
        fill: #28382a;
      }

      .cls-1, .cls-2, .cls-3, .cls-4 {
        stroke-width: 0px;
      }

      .cls-1, .cls-5 {
        opacity: .4;
      }

      .cls-3 {
        fill: #b1933b;
      }

      .cls-4 {
        fill: #425437;
      }

      .cls-6 {
        opacity: .39;
      }
    </style>
  </defs>
  <g id="BACKGROUND">
    <rect class="cls-2" width="2000" height="500"/>
  </g>
  <g>
    <path class="cls-3" d="m179.28,468.7v-29.74h-.17c-16.33.01-29.57,13.26-29.57,29.59v.23c0,16.34,13.24,29.58,29.57,29.59h.17v-29.67h0Z"/>
    <path class="cls-4" d="m149.59,468.78v-.23c0-16.34-13.24-29.58-29.57-29.59h-.17v59.41h.17c16.33-.01,29.57-13.26,29.57-29.59Z"/>
    <path class="cls-4" d="m26.8,360.01v-.23c0-16.34-13.24-29.58-29.57-29.59h-.17v59.41h.17c16.33-.01,29.57-13.26,29.57-29.59Z"/>
    <g>
      <path class="cls-4" d="m58.72,437.31c0-16.33,13.26-29.57,29.59-29.57-.01,16.33-13.26,29.57-29.59,29.57Z"/>
      <path class="cls-4" d="m118.14,437.31c-.01-16.33-13.26-29.57-29.59-29.57.01,16.33,13.26,29.57,29.59,29.57Z"/>
      <path class="cls-4" d="m118.14,378.22c-.01,16.33-13.26,29.57-29.59,29.57.01-16.33,13.26-29.57,29.59-29.57Z"/>
      <path class="cls-4" d="m58.72,378.22c0,16.33,13.26,29.57,29.59,29.57-.01-16.33-13.26-29.57-29.59-29.57Z"/>
    </g>
    <g>
      <path class="cls-3" d="m532.38,439.74c-.01,16.33-13.26,29.57-29.59,29.57.01-16.33,13.26-29.57,29.59-29.57Z"/>
      <path class="cls-3" d="m472.97,439.74c.01,16.33,13.26,29.57,29.59,29.57-.01-16.33-13.26-29.57-29.59-29.57Z"/>
      <path class="cls-3" d="m532.38,469.42c-.01,16.33-13.26,29.57-29.59,29.57.01-16.33,13.26-29.57,29.59-29.57Z"/>
      <path class="cls-3" d="m472.97,469.42c.01,16.33,13.26,29.57,29.59,29.57-.01-16.33-13.26-29.57-29.59-29.57Z"/>
    </g>
    <g>
      <path class="cls-3" d="m353.08,380.84c-.01,16.33-13.26,29.57-29.59,29.57.01-16.33,13.26-29.57,29.59-29.57Z"/>
      <path class="cls-4" d="m293.67,380.84c.01,16.33,13.26,29.57,29.59,29.57-.01-16.33-13.26-29.57-29.59-29.57Z"/>
      <path class="cls-3" d="m353.08,410.52c-.01,16.33-13.26,29.57-29.59,29.57.01-16.33,13.26-29.57,29.59-29.57Z"/>
      <path class="cls-4" d="m293.67,410.52c.01,16.33,13.26,29.57,29.59,29.57-.01-16.33-13.26-29.57-29.59-29.57Z"/>
    </g>
    <g>
      <path class="cls-4" d="m413.93,435.6c-.01,16.33-13.26,29.57-29.59,29.57.01-16.33,13.26-29.57,29.59-29.57Z"/>
      <path class="cls-3" d="m354.52,435.6c.01,16.33,13.26,29.57,29.59,29.57-.01-16.33-13.26-29.57-29.59-29.57Z"/>
      <path class="cls-4" d="m413.93,465.28c-.01,16.33-13.26,29.57-29.59,29.57.01-16.33,13.26-29.57,29.59-29.57Z"/>
      <path class="cls-3" d="m354.52,465.28c.01,16.33,13.26,29.57,29.59,29.57-.01-16.33-13.26-29.57-29.59-29.57Z"/>
    </g>
    <g>
      <path class="cls-3" d="m443.52,437.08c-.01,16.33-13.26,29.57-29.59,29.57.01-16.33,13.26-29.57,29.59-29.57Z"/>
      <path class="cls-3" d="m443.37,437.08c.01,16.33,13.26,29.57,29.59,29.57-.01-16.33-13.26-29.57-29.59-29.57Z"/>
      <path class="cls-3" d="m443.52,466.76c-.01,16.33-13.26,29.57-29.59,29.57.01-16.33,13.26-29.57,29.59-29.57Z"/>
      <path class="cls-3" d="m443.37,466.76c.01,16.33,13.26,29.57,29.59,29.57-.01-16.33-13.26-29.57-29.59-29.57Z"/>
    </g>
    <g>
      <rect class="cls-4" x="27.99" y="377.6" width="29.74" height="29.74"/>
      <rect class="cls-4" x="-1.76" y="407.39" width="29.74" height="29.74"/>
    </g>
    <circle class="cls-4" cx="208.98" cy="403.3" r="29.6"/>
    <g>
      <polygon class="cls-4" points="171.13 438.01 150.1 416.98 129.07 438.01 171.13 438.01"/>
      <polygon class="cls-3" points="171.13 417.57 150.1 396.54 129.07 417.57 171.13 417.57"/>
      <polygon class="cls-4" points="171.16 395.9 150.13 374.87 129.1 395.9 171.16 395.9"/>
    </g>
    <g>
      <polygon class="cls-4" points="228.93 495.14 207.9 474.11 186.87 495.14 228.93 495.14"/>
      <polygon class="cls-3" points="228.93 474.7 207.9 453.67 186.87 474.7 228.93 474.7"/>
      <polygon class="cls-4" points="228.96 453.03 207.93 432 186.9 453.03 228.96 453.03"/>
    </g>
    <circle class="cls-3" cx="88.43" cy="468.59" r="29.6"/>
    <g>
      <path class="cls-4" d="m56.29,439.71c0,16.33-13.26,29.57-29.59,29.57.01-16.33,13.26-29.57,29.59-29.57Z"/>
      <path class="cls-4" d="m-3.12,439.71c0,16.33,13.26,29.57,29.59,29.57-.01-16.33-13.26-29.57-29.59-29.57Z"/>
      <path class="cls-4" d="m-3.12,498.8c0-16.33,13.26-29.57,29.59-29.57-.01,16.33-13.26,29.57-29.59,29.57Z"/>
      <path class="cls-4" d="m56.29,498.8c0-16.33-13.26-29.57-29.59-29.57.01,16.33,13.26,29.57,29.59,29.57Z"/>
    </g>
    <g>
      <path class="cls-3" d="m291.96,438.29c-.01,16.33-13.26,29.57-29.59,29.57.01-16.33,13.26-29.57,29.59-29.57Z"/>
      <path class="cls-3" d="m232.55,438.29c0,16.33,13.26,29.57,29.59,29.57-.01-16.33-13.26-29.57-29.59-29.57h0Z"/>
      <path class="cls-3" d="m232.55,497.38c0-16.33,13.26-29.57,29.59-29.57-.01,16.33-13.26,29.57-29.59,29.57h0Z"/>
      <path class="cls-3" d="m291.96,497.38c-.01-16.33-13.26-29.57-29.59-29.57.01,16.33,13.26,29.57,29.59,29.57Z"/>
    </g>
  </g>
  <g>
    <g>
      <path class="cls-4" d="m1999.75,150.4v-29.74h-.17c-16.33.01-29.57,13.26-29.57,29.59v.23c0,16.34,13.24,29.58,29.57,29.59h.17v-29.67Z"/>
      <path class="cls-4" d="m1970.07,150.48v-.23c0-16.34-13.24-29.58-29.57-29.59h-.17v59.41h.17c16.33,0,29.57-13.26,29.57-29.59h0Z"/>
      <path class="cls-4" d="m1784.78,31.08V1.34h-.17c-16.33,0-29.57,13.26-29.57,29.59v.23c0,16.34,13.24,29.58,29.57,29.59h.17v-29.67Z"/>
      <path class="cls-4" d="m1755.1,31.16v-.23c0-16.34-13.24-29.58-29.57-29.59h-.17v59.41h.17c16.33,0,29.57-13.26,29.57-29.59Z"/>
    </g>
    <g>
      <path class="cls-3" d="m1880.99,119c.01-16.33,13.26-29.57,29.59-29.57-.01,16.33-13.26,29.57-29.59,29.57Z"/>
      <path class="cls-4" d="m1940.4,119c-.01-16.33-13.26-29.57-29.59-29.57.01,16.33,13.26,29.57,29.59,29.57Z"/>
      <path class="cls-4" d="m1940.4,59.91c-.01,16.33-13.26,29.57-29.59,29.57.01-16.33,13.26-29.57,29.59-29.57Z"/>
      <path class="cls-3" d="m1880.99,59.91c.01,16.33,13.26,29.57,29.59,29.57-.01-16.33-13.26-29.57-29.59-29.57Z"/>
    </g>
    <g>
      <path class="cls-3" d="m1725.05,120.81c.01-16.33,13.26-29.57,29.59-29.57-.01,16.33-13.26,29.57-29.59,29.57Z"/>
      <path class="cls-4" d="m1784.46,120.81c-.01-16.33-13.26-29.57-29.59-29.57.01,16.33,13.26,29.57,29.59,29.57Z"/>
      <path class="cls-4" d="m1784.46,61.72c-.01,16.33-13.26,29.57-29.59,29.57.01-16.33,13.26-29.57,29.59-29.57Z"/>
      <path class="cls-3" d="m1725.05,61.72c.01,16.33,13.26,29.57,29.59,29.57-.01-16.33-13.26-29.57-29.59-29.57Z"/>
    </g>
    <path class="cls-4" d="m1911.6,240.86h-29.74v-.17c.01-16.33,13.26-29.57,29.59-29.57h.23c16.34,0,29.58,13.24,29.59,29.57v.17h-29.67,0Z"/>
    <path class="cls-3" d="m1911.68,211.18h-.23c-16.34,0-29.58-13.24-29.59-29.57v-.17h59.41v.17c-.01,16.33-13.26,29.57-29.59,29.57h0Z"/>
    <path class="cls-4" d="m1694.08,59.85h-29.74v-.17c.01-16.33,13.26-29.57,29.59-29.57h.23c16.34,0,29.58,13.24,29.59,29.57v.17h-29.67,0Z"/>
    <path class="cls-3" d="m1694.16,30.16h-.23c-16.34,0-29.58-13.24-29.59-29.57v-.17h59.41v.17c-.01,16.33-13.26,29.57-29.59,29.57h0Z"/>
    <g>
      <path class="cls-3" d="m1821.68,178.55c.01-16.33,13.26-29.57,29.59-29.57-.01,16.33-13.26,29.57-29.59,29.57h0Z"/>
      <path class="cls-3" d="m1881.1,178.55c-.01-16.33-13.26-29.57-29.59-29.57.01,16.33,13.26,29.57,29.59,29.57h0Z"/>
      <path class="cls-3" d="m1821.68,148.87c.01-16.33,13.26-29.57,29.59-29.57-.01,16.33-13.26,29.57-29.59,29.57Z"/>
      <path class="cls-3" d="m1881.1,148.87c-.01-16.33-13.26-29.57-29.59-29.57.01,16.33,13.26,29.57,29.59,29.57Z"/>
    </g>
    <g>
      <path class="cls-4" d="m1821.68,240.92c.01-16.33,13.26-29.57,29.59-29.57-.01,16.33-13.26,29.57-29.59,29.57h0Z"/>
      <path class="cls-4" d="m1881.1,240.92c-.01-16.33-13.26-29.57-29.59-29.57.01,16.33,13.26,29.57,29.59,29.57h0Z"/>
      <path class="cls-4" d="m1821.68,211.24c.01-16.33,13.26-29.57,29.59-29.57-.01,16.33-13.26,29.57-29.59,29.57h0Z"/>
      <path class="cls-4" d="m1881.1,211.24c-.01-16.33-13.26-29.57-29.59-29.57.01,16.33,13.26,29.57,29.59,29.57h0Z"/>
    </g>
    <circle class="cls-3" cx="1970.26" cy="89.32" r="29.6" transform="translate(33.33 461.06) rotate(-13.46)"/>
    <g>
      <polygon class="cls-3" points="1940.37 122.07 1911.97 151.45 1941.34 179.85 1940.37 122.07"/>
      <polygon class="cls-4" points="1882.53 123 1883.5 180.78 1911.9 151.41 1882.53 123"/>
    </g>
    <g>
      <polygon class="cls-4" points="1879.85 59.53 1850.94 88.41 1879.82 117.31 1879.85 59.53"/>
      <polygon class="cls-4" points="1821.99 59.47 1821.97 117.26 1850.88 88.37 1821.99 59.47"/>
    </g>
    <circle class="cls-4" cx="1910.69" cy="30.21" r="29.6"/>
    <g>
      <path class="cls-3" d="m1940.59,59.09c.01-16.33,13.26-29.57,29.59-29.57-.01,16.33-13.26,29.57-29.59,29.57Z"/>
      <path class="cls-3" d="m2000,59.09c-.01-16.33-13.26-29.57-29.59-29.57.01,16.33,13.26,29.57,29.59,29.57Z"/>
      <path class="cls-3" d="m2000,0c-.01,16.33-13.26,29.57-29.59,29.57.01-16.33,13.26-29.57,29.59-29.57Z"/>
      <path class="cls-3" d="m1940.59,0c.01,16.33,13.26,29.57,29.59,29.57-.01-16.33-13.26-29.57-29.59-29.57Z"/>
    </g>
    <g>
      <path class="cls-4" d="m1814.88,1.48c-.01,16.33-13.26,29.57-29.59,29.57.01-16.33,13.26-29.57,29.59-29.57Z"/>
      <path class="cls-3" d="m1814.73,1.48c.01,16.33,13.26,29.57,29.59,29.57-.01-16.33-13.26-29.57-29.59-29.57Z"/>
      <path class="cls-4" d="m1814.88,31.17c-.01,16.33-13.26,29.57-29.59,29.57.01-16.33,13.26-29.57,29.59-29.57Z"/>
      <path class="cls-3" d="m1814.73,31.17c.01,16.33,13.26,29.57,29.59,29.57-.01-16.33-13.26-29.57-29.59-29.57Z"/>
    </g>
    <g>
      <rect class="cls-4" x="1969.74" y="181.93" width="29.74" height="29.74"/>
      <rect class="cls-4" x="1939.98" y="211.72" width="29.74" height="29.74"/>
    </g>
    <g>
      <rect class="cls-4" x="1791.03" y="117.52" width="29.74" height="29.74"/>
      <rect class="cls-3" x="1761.28" y="147.31" width="29.74" height="29.74"/>
    </g>
    <g>
      <polygon class="cls-4" points="1890.5 264.05 1911.53 285.08 1932.56 264.05 1890.5 264.05"/>
      <polygon class="cls-3" points="1890.5 284.48 1911.53 305.51 1932.56 284.48 1890.5 284.48"/>
      <polygon class="cls-4" points="1890.47 306.15 1911.5 327.18 1932.53 306.15 1890.47 306.15"/>
    </g>
    <g>
      <polygon class="cls-4" points="1829.68 243.42 1850.71 264.45 1871.74 243.42 1829.68 243.42"/>
      <polygon class="cls-3" points="1829.68 263.86 1850.71 284.89 1871.74 263.86 1829.68 263.86"/>
      <polygon class="cls-4" points="1829.65 285.53 1850.68 306.55 1871.71 285.53 1829.65 285.53"/>
    </g>
  </g>
  <g class="cls-6">
    <path class="cls-2" d="m-2.65,29.86v29.74h.17c16.33,0,29.57-13.26,29.57-29.59v-.23C27.08,13.45,13.85.21-2.49.19h-.17v29.67h0Z"/>
    <path class="cls-2" d="m27.03,29.78v.23c0,16.34,13.24,29.58,29.57,29.59h.17V.19h-.17c-16.33.01-29.57,13.26-29.57,29.59Z"/>
    <g>
      <path class="cls-2" d="m117.9,61.26c-.01,16.33-13.26,29.57-29.59,29.57.01-16.33,13.26-29.57,29.59-29.57Z"/>
      <path class="cls-2" d="m58.48,61.26c0,16.33,13.26,29.57,29.59,29.57-.01-16.33-13.26-29.57-29.59-29.57Z"/>
      <path class="cls-2" d="m58.48,120.35c0-16.33,13.26-29.57,29.59-29.57-.01,16.33-13.26,29.57-29.59,29.57Z"/>
      <path class="cls-2" d="m117.9,120.35c-.01-16.33-13.26-29.57-29.59-29.57.01,16.33,13.26,29.57,29.59,29.57Z"/>
    </g>
    <g>
      <path class="cls-2" d="m59.41,132.39c0,16.33-13.26,29.57-29.59,29.57.01-16.33,13.26-29.57,29.59-29.57h0Z"/>
      <path class="cls-2" d="m0,132.39c0,16.33,13.26,29.57,29.59,29.57-.01-16.33-13.25-29.57-29.59-29.57Z"/>
      <path class="cls-2" d="m0,191.48c0-16.33,13.26-29.57,29.59-29.57-.01,16.33-13.25,29.57-29.59,29.57Z"/>
      <path class="cls-2" d="m59.41,191.48c0-16.33-13.26-29.57-29.59-29.57.01,16.33,13.26,29.57,29.59,29.57h0Z"/>
    </g>
    <g>
      <rect class="cls-2" x="118.87" y="61.45" width="29.74" height="29.74"/>
      <rect class="cls-2" x="148.66" y="91.2" width="29.74" height="29.74"/>
    </g>
    <g>
      <polygon class="cls-2" points="5.49 60.56 26.52 81.59 47.55 60.56 5.49 60.56"/>
      <polygon class="cls-2" points="5.49 80.99 26.52 102.02 47.55 80.99 5.49 80.99"/>
      <polygon class="cls-2" points="5.46 102.66 26.49 123.69 47.52 102.66 5.46 102.66"/>
    </g>
    <circle class="cls-2" cx="88.19" cy="29.98" r="29.6"/>
    <g>
      <path class="cls-2" d="m120.33,58.85c.01-16.33,13.26-29.57,29.59-29.57,0,16.33-13.26,29.57-29.59,29.57Z"/>
      <path class="cls-2" d="m179.74,58.85c0-16.33-13.26-29.57-29.59-29.57,0,16.33,13.26,29.57,29.59,29.57Z"/>
      <path class="cls-2" d="m179.74-.24c0,16.33-13.26,29.57-29.59,29.57,0-16.33,13.26-29.57,29.59-29.57Z"/>
      <path class="cls-2" d="m120.33-.24c.01,16.33,13.26,29.57,29.59,29.57,0-16.33-13.26-29.57-29.59-29.57Z"/>
    </g>
  </g>
  <g>
    <g class="cls-5">
      <path class="cls-2" d="m1911.22,440.12h-29.74v-.17c.01-16.33,13.26-29.57,29.59-29.57h.23c16.34,0,29.58,13.24,29.59,29.57v.17h-29.67,0Z"/>
    </g>
    <g class="cls-5">
      <path class="cls-2" d="m1881.18,499.95c.01-16.33,13.26-29.57,29.59-29.57-.01,16.33-13.26,29.57-29.59,29.57Z"/>
      <path class="cls-2" d="m1940.59,499.95c-.01-16.33-13.26-29.57-29.59-29.57.01,16.33,13.26,29.57,29.59,29.57Z"/>
      <path class="cls-2" d="m1940.59,440.86c-.01,16.33-13.26,29.57-29.59,29.57.01-16.33,13.26-29.57,29.59-29.57Z"/>
      <path class="cls-2" d="m1881.18,440.86c.01,16.33,13.26,29.57,29.59,29.57-.01-16.33-13.26-29.57-29.59-29.57Z"/>
    </g>
    <circle class="cls-1" cx="1970.48" cy="470.4" r="29.6" transform="translate(244.52 1531.12) rotate(-45)"/>
    <polygon class="cls-1" points="1880.04 440.47 1851.13 469.36 1880.01 498.26 1880.04 440.47"/>
    <polygon class="cls-1" points="1822.75 440.47 1851.65 469.36 1822.77 498.26 1822.75 440.47"/>
    <g class="cls-5">
      <path class="cls-2" d="m1940.78,440.04c.01-16.33,13.26-29.57,29.59-29.57-.01,16.33-13.26,29.57-29.59,29.57Z"/>
      <path class="cls-2" d="m2000.19,440.04c-.01-16.33-13.26-29.57-29.59-29.57.01,16.33,13.26,29.57,29.59,29.57Z"/>
      <path class="cls-2" d="m2000.19,380.95c-.01,16.33-13.26,29.57-29.59,29.57.01-16.33,13.26-29.57,29.59-29.57Z"/>
      <path class="cls-2" d="m1940.78,380.95c.01,16.33,13.26,29.57,29.59,29.57-.01-16.33-13.26-29.57-29.59-29.57Z"/>
    </g>
    <g class="cls-5">
      <path class="cls-2" d="m1850.41,439.66c.01-16.33,13.26-29.57,29.59-29.57-.01,16.33-13.26,29.57-29.59,29.57Z"/>
      <path class="cls-2" d="m1850.56,439.66c-.01-16.33-13.26-29.57-29.59-29.57.01,16.33,13.26,29.57,29.59,29.57Z"/>
      <path class="cls-2" d="m1850.41,409.98c.01-16.33,13.26-29.57,29.59-29.57-.01,16.33-13.26,29.57-29.59,29.57Z"/>
      <path class="cls-2" d="m1850.56,409.98c-.01-16.33-13.26-29.57-29.59-29.57.01,16.33,13.26,29.57,29.59,29.57Z"/>
    </g>
  </g>
</svg>