<?xml version="1.0" encoding="UTF-8"?>
<svg id="Layer_1" data-name="Layer 1" xmlns="http://www.w3.org/2000/svg" viewBox="0 0 2000 600">
  <defs>
    <style>
      .cls-1 {
        fill: #b1933b;
      }

      .cls-1, .cls-2 {
        stroke-width: 0px;
      }

      .cls-2 {
        fill: #425437;
      }
    </style>
  </defs>
  <g>
    <path class="cls-1" d="m1708.35,552.56v-47.55h.27c26.11.02,47.28,21.2,47.28,47.31v.37c0,26.13-21.17,47.3-47.28,47.31h-.27v-47.44h0Z"/>
    <path class="cls-1" d="m1853.55,551.57h47.55v.27c-.02,26.11-21.2,47.28-47.31,47.28h-.37c-26.13,0-47.3-21.17-47.31-47.28v-.27h47.44Z"/>
    <path class="cls-2" d="m1477.89,551.57h47.55v.27c-.02,26.11-21.2,47.28-47.31,47.28h-.37c-26.13,0-47.3-21.17-47.31-47.28v-.27h47.44Z"/>
    <path class="cls-2" d="m1755.82,552.69v-.37c0-26.13,21.17-47.3,47.28-47.31h.27v94.99h-.27c-26.11-.02-47.28-21.2-47.28-47.31Z"/>
    <g>
      <path class="cls-2" d="m1901.12,502.37c-.02-26.11-21.2-47.28-47.31-47.28.02,26.11,21.2,47.28,47.31,47.28Z"/>
      <path class="cls-2" d="m1806.11,502.37c.02-26.11,21.2-47.28,47.31-47.28-.02,26.11-21.2,47.28-47.31,47.28Z"/>
      <path class="cls-2" d="m1806.11,407.88c.02,26.11,21.2,47.28,47.31,47.28-.02-26.11-21.2-47.28-47.31-47.28Z"/>
      <path class="cls-2" d="m1901.12,407.88c-.02,26.11-21.2,47.28-47.31,47.28.02-26.11,21.2-47.28,47.31-47.28Z"/>
    </g>
    <g>
      <path class="cls-1" d="m1143.76,505.2c.02,26.11,21.2,47.28,47.31,47.28-.02-26.11-21.2-47.28-47.31-47.28Z"/>
      <path class="cls-1" d="m1238.75,505.2c-.02,26.11-21.2,47.28-47.31,47.28.02-26.11,21.2-47.28,47.31-47.28Z"/>
      <path class="cls-1" d="m1143.76,552.66c.02,26.11,21.2,47.28,47.31,47.28-.02-26.11-21.2-47.28-47.31-47.28Z"/>
      <path class="cls-1" d="m1238.75,552.66c-.02,26.11-21.2,47.28-47.31,47.28.02-26.11,21.2-47.28,47.31-47.28Z"/>
    </g>
    <g>
      <path class="cls-1" d="m1430.45,412.07c.02,26.11,21.2,47.28,47.31,47.28-.02-26.11-21.2-47.28-47.31-47.28Z"/>
      <path class="cls-2" d="m1525.44,412.07c-.02,26.11-21.2,47.28-47.31,47.28.02-26.11,21.2-47.28,47.31-47.28Z"/>
      <path class="cls-1" d="m1430.45,459.53c.02,26.11,21.2,47.28,47.31,47.28-.02-26.11-21.2-47.28-47.31-47.28Z"/>
      <path class="cls-2" d="m1525.44,459.53c-.02,26.11-21.2,47.28-47.31,47.28.02-26.11,21.2-47.28,47.31-47.28Z"/>
    </g>
    <g>
      <path class="cls-2" d="m1333.15,499.63c.02,26.11,21.2,47.28,47.31,47.28-.02-26.11-21.2-47.28-47.31-47.28Z"/>
      <path class="cls-1" d="m1428.15,499.63c-.02,26.11-21.2,47.28-47.31,47.28.02-26.11,21.2-47.28,47.31-47.28Z"/>
      <path class="cls-2" d="m1333.15,547.09c.02,26.11,21.2,47.28,47.31,47.28-.02-26.11-21.2-47.28-47.31-47.28Z"/>
      <path class="cls-1" d="m1428.15,547.09c-.02,26.11-21.2,47.28-47.31,47.28.02-26.11,21.2-47.28,47.31-47.28Z"/>
    </g>
    <g>
      <path class="cls-2" d="m1001.51,505.2c.02,26.11,21.2,47.28,47.31,47.28-.02-26.11-21.2-47.28-47.31-47.28Z"/>
      <path class="cls-1" d="m1096.5,505.2c-.02,26.11-21.2,47.28-47.31,47.28.02-26.11,21.2-47.28,47.31-47.28Z"/>
      <path class="cls-2" d="m1001.51,552.66c.02,26.11,21.2,47.28,47.31,47.28-.02-26.11-21.2-47.28-47.31-47.28Z"/>
      <path class="cls-1" d="m1096.5,552.66c-.02,26.11-21.2,47.28-47.31,47.28.02-26.11,21.2-47.28,47.31-47.28Z"/>
    </g>
    <g>
      <path class="cls-1" d="m1285.84,502c.02,26.11,21.2,47.28,47.31,47.28-.02-26.11-21.2-47.28-47.31-47.28Z"/>
      <path class="cls-1" d="m1286.08,502c-.02,26.11-21.2,47.28-47.31,47.28.02-26.11,21.2-47.28,47.31-47.28Z"/>
      <path class="cls-1" d="m1285.84,549.46c.02,26.11,21.2,47.28,47.31,47.28-.02-26.11-21.2-47.28-47.31-47.28Z"/>
      <path class="cls-1" d="m1286.08,549.46c-.02,26.11-21.2,47.28-47.31,47.28.02-26.11,21.2-47.28,47.31-47.28Z"/>
    </g>
    <g>
      <rect class="cls-2" x="1902.7" y="406.89" width="47.55" height="47.55"/>
      <rect class="cls-2" x="1950.27" y="454.53" width="47.55" height="47.55"/>
    </g>
    <g>
      <polygon class="cls-2" points="1721.38 503.49 1755.01 469.86 1788.63 503.49 1721.38 503.49"/>
      <polygon class="cls-1" points="1721.38 470.8 1755.01 437.18 1788.63 470.8 1721.38 470.8"/>
      <polygon class="cls-2" points="1721.33 436.15 1754.96 402.53 1788.59 436.15 1721.33 436.15"/>
    </g>
    <path class="cls-2" d="m1096.32,552.69v-.37c0-26.13,21.17-47.3,47.28-47.31h.27v94.99h-.27c-26.11-.02-47.28-21.2-47.28-47.31Z"/>
    <g>
      <polygon class="cls-2" points="1078.68 497.19 1112.3 463.56 1145.93 497.19 1078.68 497.19"/>
      <polygon class="cls-1" points="1078.68 464.51 1112.3 430.88 1145.93 464.51 1078.68 464.51"/>
      <polygon class="cls-2" points="1078.63 429.86 1112.26 396.23 1145.88 429.86 1078.63 429.86"/>
    </g>
    <g>
      <polygon class="cls-2" points="1628.96 594.84 1662.59 561.21 1696.21 594.84 1628.96 594.84"/>
      <polygon class="cls-1" points="1628.96 562.15 1662.59 528.53 1696.21 562.15 1628.96 562.15"/>
      <polygon class="cls-2" points="1628.91 527.5 1662.54 493.88 1696.17 527.5 1628.91 527.5"/>
    </g>
    <g>
      <path class="cls-2" d="m1905.01,505.2c.02,26.11,21.2,47.28,47.31,47.28-.02-26.11-21.2-47.28-47.31-47.28Z"/>
      <path class="cls-2" d="m2000,505.2c-.02,26.11-21.2,47.28-47.31,47.28.02-26.11,21.2-47.28,47.31-47.28Z"/>
      <path class="cls-2" d="m2000,599.69c-.02-26.11-21.2-47.28-47.31-47.28.02,26.11,21.2,47.28,47.31,47.28Z"/>
      <path class="cls-2" d="m1905.01,599.69c.02-26.11,21.2-47.28,47.31-47.28-.02,26.11-21.2,47.28-47.31,47.28Z"/>
    </g>
    <g>
      <path class="cls-1" d="m1528.18,503.93c.02,26.11,21.2,47.28,47.31,47.28-.02-26.11-21.2-47.28-47.31-47.28Z"/>
      <path class="cls-1" d="m1623.17,503.93c-.02,26.11-21.2,47.28-47.31,47.28.02-26.11,21.2-47.28,47.31-47.28h0Z"/>
      <path class="cls-1" d="m1623.17,598.42c-.02-26.11-21.2-47.28-47.31-47.28.02,26.11,21.2,47.28,47.31,47.28h0Z"/>
      <path class="cls-1" d="m1528.18,598.42c.02-26.11,21.2-47.28,47.31-47.28-.02,26.11-21.2,47.28-47.31,47.28Z"/>
    </g>
  </g>
  <g>
    <path class="cls-1" d="m706.84,552.56v-47.55h.27c26.11.02,47.28,21.2,47.28,47.31v.37c0,26.13-21.17,47.3-47.28,47.31h-.27v-47.44h0Z"/>
    <path class="cls-1" d="m852.04,551.57h47.55v.27c-.02,26.11-21.2,47.28-47.31,47.28h-.37c-26.13,0-47.3-21.17-47.31-47.28v-.27h47.44Z"/>
    <path class="cls-2" d="m476.38,551.57h47.55v.27c-.02,26.11-21.2,47.28-47.31,47.28h-.37c-26.13,0-47.3-21.17-47.31-47.28v-.27h47.44Z"/>
    <path class="cls-2" d="m754.31,552.69v-.37c0-26.13,21.17-47.3,47.28-47.31h.27v94.99h-.27c-26.11-.02-47.28-21.2-47.28-47.31Z"/>
    <g>
      <path class="cls-2" d="m899.61,502.37c-.02-26.11-21.2-47.28-47.31-47.28.02,26.11,21.2,47.28,47.31,47.28Z"/>
      <path class="cls-2" d="m804.6,502.37c.02-26.11,21.2-47.28,47.31-47.28-.02,26.11-21.2,47.28-47.31,47.28Z"/>
      <path class="cls-2" d="m804.6,407.88c.02,26.11,21.2,47.28,47.31,47.28-.02-26.11-21.2-47.28-47.31-47.28Z"/>
      <path class="cls-2" d="m899.61,407.88c-.02,26.11-21.2,47.28-47.31,47.28.02-26.11,21.2-47.28,47.31-47.28Z"/>
    </g>
    <g>
      <path class="cls-1" d="m142.25,505.2c.02,26.11,21.2,47.28,47.31,47.28-.02-26.11-21.2-47.28-47.31-47.28Z"/>
      <path class="cls-1" d="m237.24,505.2c-.02,26.11-21.2,47.28-47.31,47.28.02-26.11,21.2-47.28,47.31-47.28Z"/>
      <path class="cls-1" d="m142.25,552.66c.02,26.11,21.2,47.28,47.31,47.28-.02-26.11-21.2-47.28-47.31-47.28Z"/>
      <path class="cls-1" d="m237.24,552.66c-.02,26.11-21.2,47.28-47.31,47.28.02-26.11,21.2-47.28,47.31-47.28Z"/>
    </g>
    <g>
      <path class="cls-1" d="m428.94,412.07c.02,26.11,21.2,47.28,47.31,47.28-.02-26.11-21.2-47.28-47.31-47.28Z"/>
      <path class="cls-2" d="m523.94,412.07c-.02,26.11-21.2,47.28-47.31,47.28.02-26.11,21.2-47.28,47.31-47.28Z"/>
      <path class="cls-1" d="m428.94,459.53c.02,26.11,21.2,47.28,47.31,47.28-.02-26.11-21.2-47.28-47.31-47.28Z"/>
      <path class="cls-2" d="m523.94,459.53c-.02,26.11-21.2,47.28-47.31,47.28.02-26.11,21.2-47.28,47.31-47.28Z"/>
    </g>
    <g>
      <path class="cls-2" d="m331.64,499.63c.02,26.11,21.2,47.28,47.31,47.28-.02-26.11-21.2-47.28-47.31-47.28Z"/>
      <path class="cls-1" d="m426.64,499.63c-.02,26.11-21.2,47.28-47.31,47.28.02-26.11,21.2-47.28,47.31-47.28Z"/>
      <path class="cls-2" d="m331.64,547.09c.02,26.11,21.2,47.28,47.31,47.28-.02-26.11-21.2-47.28-47.31-47.28Z"/>
      <path class="cls-1" d="m426.64,547.09c-.02,26.11-21.2,47.28-47.31,47.28.02-26.11,21.2-47.28,47.31-47.28Z"/>
    </g>
    <g>
      <path class="cls-2" d="m0,505.2c.02,26.11,21.2,47.28,47.31,47.28C47.3,526.38,26.11,505.2,0,505.2Z"/>
      <path class="cls-1" d="m94.99,505.2c-.02,26.11-21.2,47.28-47.31,47.28.02-26.11,21.2-47.28,47.31-47.28Z"/>
      <path class="cls-2" d="m0,552.66c.02,26.11,21.2,47.28,47.31,47.28-.02-26.11-21.2-47.28-47.31-47.28Z"/>
      <path class="cls-1" d="m94.99,552.66c-.02,26.11-21.2,47.28-47.31,47.28.02-26.11,21.2-47.28,47.31-47.28Z"/>
    </g>
    <g>
      <path class="cls-1" d="m284.33,502c.02,26.11,21.2,47.28,47.31,47.28-.02-26.11-21.2-47.28-47.31-47.28Z"/>
      <path class="cls-1" d="m284.57,502c-.02,26.11-21.2,47.28-47.31,47.28.02-26.11,21.2-47.28,47.31-47.28Z"/>
      <path class="cls-1" d="m284.33,549.46c.02,26.11,21.2,47.28,47.31,47.28-.02-26.11-21.2-47.28-47.31-47.28Z"/>
      <path class="cls-1" d="m284.57,549.46c-.02,26.11-21.2,47.28-47.31,47.28.02-26.11,21.2-47.28,47.31-47.28Z"/>
    </g>
    <g>
      <rect class="cls-2" x="901.19" y="406.89" width="47.55" height="47.55"/>
      <rect class="cls-2" x="948.76" y="454.53" width="47.55" height="47.55"/>
    </g>
    <g>
      <polygon class="cls-2" points="719.87 503.49 753.5 469.86 787.12 503.49 719.87 503.49"/>
      <polygon class="cls-1" points="719.87 470.8 753.5 437.18 787.12 470.8 719.87 470.8"/>
      <polygon class="cls-2" points="719.82 436.15 753.45 402.53 787.08 436.15 719.82 436.15"/>
    </g>
    <path class="cls-2" d="m94.81,552.69v-.37c0-26.13,21.17-47.3,47.28-47.31h.27v94.99h-.27c-26.11-.02-47.28-21.2-47.28-47.31Z"/>
    <g>
      <polygon class="cls-2" points="77.17 497.19 110.79 463.56 144.42 497.19 77.17 497.19"/>
      <polygon class="cls-1" points="77.17 464.51 110.79 430.88 144.42 464.51 77.17 464.51"/>
      <polygon class="cls-2" points="77.12 429.86 110.75 396.23 144.37 429.86 77.12 429.86"/>
    </g>
    <g>
      <polygon class="cls-2" points="627.45 594.84 661.08 561.21 694.7 594.84 627.45 594.84"/>
      <polygon class="cls-1" points="627.45 562.15 661.08 528.53 694.7 562.15 627.45 562.15"/>
      <polygon class="cls-2" points="627.4 527.5 661.03 493.88 694.66 527.5 627.4 527.5"/>
    </g>
    <g>
      <path class="cls-2" d="m903.5,505.2c.02,26.11,21.2,47.28,47.31,47.28-.02-26.11-21.2-47.28-47.31-47.28Z"/>
      <path class="cls-2" d="m998.49,505.2c-.02,26.11-21.2,47.28-47.31,47.28.02-26.11,21.2-47.28,47.31-47.28Z"/>
      <path class="cls-2" d="m998.49,599.69c-.02-26.11-21.2-47.28-47.31-47.28.02,26.11,21.2,47.28,47.31,47.28Z"/>
      <path class="cls-2" d="m903.5,599.69c.02-26.11,21.2-47.28,47.31-47.28-.02,26.11-21.2,47.28-47.31,47.28Z"/>
    </g>
    <g>
      <path class="cls-1" d="m526.67,503.93c.02,26.11,21.2,47.28,47.31,47.28-.02-26.11-21.2-47.28-47.31-47.28Z"/>
      <path class="cls-1" d="m621.66,503.93c-.02,26.11-21.2,47.28-47.31,47.28.02-26.11,21.2-47.28,47.31-47.28h0Z"/>
      <path class="cls-1" d="m621.66,598.42c-.02-26.11-21.2-47.28-47.31-47.28.02,26.11,21.2,47.28,47.31,47.28h0Z"/>
      <path class="cls-1" d="m526.67,598.42c.02-26.11,21.2-47.28,47.31-47.28-.02,26.11-21.2,47.28-47.31,47.28Z"/>
    </g>
  </g>
</svg>